<svg width="100" height="100" viewBox="0 0 100 100" xmlns="http://www.w3.org/2000/svg">
  <!-- Large leaf -->
  <path d="M 20 50 Q 10 30 30 20 Q 50 10 70 30 Q 60 50 40 60 Z" fill="#228B22" stroke="#006400" stroke-width="2"/>
  
  <!-- Medium leaf -->
  <path d="M 45 70 Q 35 55 50 50 Q 65 45 75 60 Q 70 75 55 80 Z" fill="#32CD32" stroke="#228B22" stroke-width="2"/>
  
  <!-- Small leaf -->
  <path d="M 60 25 Q 55 15 70 10 Q 85 15 80 30 Q 75 35 65 32 Z" fill="#90EE90" stroke="#32CD32" stroke-width="2"/>
  
  <!-- Leaf veins for large leaf -->
  <path d="M 30 25 Q 45 35 55 45" stroke="#006400" stroke-width="1" fill="none"/>
  <path d="M 35 32 Q 42 38 48 42" stroke="#006400" stroke-width="1" fill="none"/>
  <path d="M 40 40 Q 47 45 52 50" stroke="#006400" stroke-width="1" fill="none"/>
  
  <!-- Leaf veins for medium leaf -->
  <path d="M 50 55 Q 60 62 65 70" stroke="#228B22" stroke-width="1" fill="none"/>
  <path d="M 55 62 Q 62 67 68 72" stroke="#228B22" stroke-width="1" fill="none"/>
  
  <!-- Leaf veins for small leaf -->
  <path d="M 70 15 Q 72 22 75 25" stroke="#32CD32" stroke-width="1" fill="none"/>
</svg>